<mxfile host="app.diagrams.net" agent="Mozilla/5.0 (Windows NT 10.0; Win64; x64) AppleWebKit/537.36 (KHTML, like Gecko) Chrome/133.0.0.0 Safari/537.36" version="26.0.15">
  <diagram name="Page-1" id="0783ab3e-0a74-02c8-0abd-f7b4e66b4bec">
    <mxGraphModel dx="2068" dy="984" grid="1" gridSize="10" guides="1" tooltips="1" connect="1" arrows="1" fold="1" page="1" pageScale="1" pageWidth="850" pageHeight="1100" background="none" math="0" shadow="0">
      <root>
        <mxCell id="0" />
        <mxCell id="1" parent="0" />
        <mxCell id="1c1d494c118603dd-1" value="Activity Diagram" style="swimlane;html=1;childLayout=stackLayout;startSize=20;rounded=0;shadow=0;comic=0;labelBackgroundColor=none;strokeWidth=1;fontFamily=Verdana;fontSize=12;align=center;" parent="1" vertex="1">
          <mxGeometry x="40" y="20" width="500" height="1020" as="geometry" />
        </mxCell>
        <mxCell id="j9S7m9VbnJjn6Bd4xAih-59" value="" style="edgeStyle=orthogonalEdgeStyle;rounded=0;orthogonalLoop=1;jettySize=auto;html=1;" edge="1" parent="1c1d494c118603dd-1" source="j9S7m9VbnJjn6Bd4xAih-56" target="j9S7m9VbnJjn6Bd4xAih-58">
          <mxGeometry relative="1" as="geometry" />
        </mxCell>
        <mxCell id="j9S7m9VbnJjn6Bd4xAih-69" value="" style="edgeStyle=orthogonalEdgeStyle;rounded=0;orthogonalLoop=1;jettySize=auto;html=1;" edge="1" parent="1c1d494c118603dd-1" source="j9S7m9VbnJjn6Bd4xAih-64" target="j9S7m9VbnJjn6Bd4xAih-68">
          <mxGeometry relative="1" as="geometry" />
        </mxCell>
        <mxCell id="1c1d494c118603dd-2" value="Pembeli" style="swimlane;html=1;startSize=20;" parent="1c1d494c118603dd-1" vertex="1">
          <mxGeometry y="20" width="250" height="1000" as="geometry" />
        </mxCell>
        <mxCell id="j9S7m9VbnJjn6Bd4xAih-37" value="" style="edgeStyle=orthogonalEdgeStyle;rounded=0;orthogonalLoop=1;jettySize=auto;html=1;" edge="1" parent="1c1d494c118603dd-2" source="j9S7m9VbnJjn6Bd4xAih-34" target="j9S7m9VbnJjn6Bd4xAih-36">
          <mxGeometry relative="1" as="geometry" />
        </mxCell>
        <mxCell id="j9S7m9VbnJjn6Bd4xAih-34" value="&lt;font style=&quot;font-size: 8px;&quot;&gt;Mencari barang&lt;/font&gt;" style="rounded=1;whiteSpace=wrap;html=1;" vertex="1" parent="1c1d494c118603dd-2">
          <mxGeometry x="77.5" y="120" width="95" height="40" as="geometry" />
        </mxCell>
        <mxCell id="j9S7m9VbnJjn6Bd4xAih-41" value="" style="edgeStyle=orthogonalEdgeStyle;rounded=0;orthogonalLoop=1;jettySize=auto;html=1;" edge="1" parent="1c1d494c118603dd-2" source="j9S7m9VbnJjn6Bd4xAih-36" target="j9S7m9VbnJjn6Bd4xAih-40">
          <mxGeometry relative="1" as="geometry" />
        </mxCell>
        <mxCell id="j9S7m9VbnJjn6Bd4xAih-43" value="" style="edgeStyle=orthogonalEdgeStyle;rounded=0;orthogonalLoop=1;jettySize=auto;html=1;entryX=0;entryY=0.5;entryDx=0;entryDy=0;exitX=0.049;exitY=0.507;exitDx=0;exitDy=0;exitPerimeter=0;" edge="1" parent="1c1d494c118603dd-2" source="j9S7m9VbnJjn6Bd4xAih-36" target="j9S7m9VbnJjn6Bd4xAih-34">
          <mxGeometry relative="1" as="geometry">
            <mxPoint x="76.84787310742615" y="266.83787310742616" as="sourcePoint" />
            <mxPoint x="40" y="179.99" as="targetPoint" />
            <Array as="points">
              <mxPoint x="89" y="230" />
              <mxPoint x="45" y="230" />
              <mxPoint x="45" y="140" />
            </Array>
          </mxGeometry>
        </mxCell>
        <mxCell id="j9S7m9VbnJjn6Bd4xAih-36" value="&lt;font style=&quot;font-size: 8px;&quot;&gt;Apakah produk ditemukan?&lt;/font&gt;" style="rhombus;whiteSpace=wrap;html=1;rounded=1;" vertex="1" parent="1c1d494c118603dd-2">
          <mxGeometry x="85" y="188" width="80" height="80" as="geometry" />
        </mxCell>
        <mxCell id="j9S7m9VbnJjn6Bd4xAih-49" value="" style="edgeStyle=orthogonalEdgeStyle;rounded=0;orthogonalLoop=1;jettySize=auto;html=1;entryX=0.5;entryY=0;entryDx=0;entryDy=0;" edge="1" parent="1c1d494c118603dd-2" source="j9S7m9VbnJjn6Bd4xAih-40" target="j9S7m9VbnJjn6Bd4xAih-50">
          <mxGeometry relative="1" as="geometry">
            <mxPoint x="125" y="370" as="targetPoint" />
          </mxGeometry>
        </mxCell>
        <mxCell id="j9S7m9VbnJjn6Bd4xAih-40" value="&lt;font style=&quot;font-size: 8px;&quot;&gt;&lt;span data-end=&quot;394&quot; data-start=&quot;354&quot;&gt;Memilih produk dan melihat detailnya&lt;/span&gt;&lt;/font&gt;" style="whiteSpace=wrap;html=1;rounded=1;" vertex="1" parent="1c1d494c118603dd-2">
          <mxGeometry x="77.5" y="290" width="95" height="40" as="geometry" />
        </mxCell>
        <mxCell id="j9S7m9VbnJjn6Bd4xAih-46" value="&lt;font style=&quot;font-size: 8px;&quot;&gt;tidak ada&lt;/font&gt;" style="text;html=1;align=center;verticalAlign=middle;resizable=0;points=[];autosize=1;strokeColor=none;fillColor=none;" vertex="1" parent="1c1d494c118603dd-2">
          <mxGeometry x="40" y="200" width="60" height="30" as="geometry" />
        </mxCell>
        <mxCell id="j9S7m9VbnJjn6Bd4xAih-47" value="&lt;font style=&quot;font-size: 8px;&quot;&gt;ada&lt;/font&gt;" style="text;html=1;align=center;verticalAlign=middle;resizable=0;points=[];autosize=1;strokeColor=none;fillColor=none;" vertex="1" parent="1c1d494c118603dd-2">
          <mxGeometry x="120" y="260" width="40" height="30" as="geometry" />
        </mxCell>
        <mxCell id="j9S7m9VbnJjn6Bd4xAih-53" value="" style="edgeStyle=orthogonalEdgeStyle;rounded=0;orthogonalLoop=1;jettySize=auto;html=1;" edge="1" parent="1c1d494c118603dd-2" source="j9S7m9VbnJjn6Bd4xAih-50" target="j9S7m9VbnJjn6Bd4xAih-52">
          <mxGeometry relative="1" as="geometry" />
        </mxCell>
        <mxCell id="j9S7m9VbnJjn6Bd4xAih-50" value="&lt;font style=&quot;font-size: 8px;&quot;&gt;Checkout&lt;/font&gt;" style="whiteSpace=wrap;html=1;rounded=1;" vertex="1" parent="1c1d494c118603dd-2">
          <mxGeometry x="77.5" y="360" width="95" height="40" as="geometry" />
        </mxCell>
        <mxCell id="j9S7m9VbnJjn6Bd4xAih-55" value="" style="edgeStyle=orthogonalEdgeStyle;rounded=0;orthogonalLoop=1;jettySize=auto;html=1;" edge="1" parent="1c1d494c118603dd-2" source="j9S7m9VbnJjn6Bd4xAih-52" target="j9S7m9VbnJjn6Bd4xAih-54">
          <mxGeometry relative="1" as="geometry" />
        </mxCell>
        <mxCell id="j9S7m9VbnJjn6Bd4xAih-52" value="&lt;font style=&quot;font-size: 8px;&quot;&gt;memilih metode pembayaran&lt;/font&gt;" style="rounded=1;whiteSpace=wrap;html=1;" vertex="1" parent="1c1d494c118603dd-2">
          <mxGeometry x="77.5" y="430" width="95" height="40" as="geometry" />
        </mxCell>
        <mxCell id="j9S7m9VbnJjn6Bd4xAih-57" value="" style="edgeStyle=orthogonalEdgeStyle;rounded=0;orthogonalLoop=1;jettySize=auto;html=1;" edge="1" parent="1c1d494c118603dd-2" source="j9S7m9VbnJjn6Bd4xAih-54" target="j9S7m9VbnJjn6Bd4xAih-56">
          <mxGeometry relative="1" as="geometry" />
        </mxCell>
        <mxCell id="j9S7m9VbnJjn6Bd4xAih-54" value="&lt;font style=&quot;font-size: 8px;&quot;&gt;Melakukan Pembayaran&lt;/font&gt;" style="whiteSpace=wrap;html=1;rounded=1;" vertex="1" parent="1c1d494c118603dd-2">
          <mxGeometry x="80" y="500" width="90" height="40" as="geometry" />
        </mxCell>
        <mxCell id="j9S7m9VbnJjn6Bd4xAih-61" value="" style="edgeStyle=orthogonalEdgeStyle;rounded=0;orthogonalLoop=1;jettySize=auto;html=1;entryX=0;entryY=0.5;entryDx=0;entryDy=0;" edge="1" parent="1c1d494c118603dd-2" source="j9S7m9VbnJjn6Bd4xAih-56" target="j9S7m9VbnJjn6Bd4xAih-52">
          <mxGeometry relative="1" as="geometry">
            <mxPoint x="80" y="530" as="targetPoint" />
            <Array as="points">
              <mxPoint x="60" y="595" />
              <mxPoint x="60" y="450" />
            </Array>
          </mxGeometry>
        </mxCell>
        <mxCell id="j9S7m9VbnJjn6Bd4xAih-56" value="&lt;font style=&quot;font-size: 8px;&quot;&gt;Apakah berhasil&lt;/font&gt;" style="rhombus;whiteSpace=wrap;html=1;rounded=1;" vertex="1" parent="1c1d494c118603dd-2">
          <mxGeometry x="87.5" y="560" width="75" height="70" as="geometry" />
        </mxCell>
        <mxCell id="j9S7m9VbnJjn6Bd4xAih-63" value="&lt;font style=&quot;font-size: 8px;&quot;&gt;ada&lt;/font&gt;" style="text;html=1;align=center;verticalAlign=middle;resizable=0;points=[];autosize=1;strokeColor=none;fillColor=none;" vertex="1" parent="1c1d494c118603dd-2">
          <mxGeometry x="172.5" y="570" width="40" height="30" as="geometry" />
        </mxCell>
        <mxCell id="j9S7m9VbnJjn6Bd4xAih-71" value="" style="edgeStyle=orthogonalEdgeStyle;rounded=0;orthogonalLoop=1;jettySize=auto;html=1;" edge="1" parent="1c1d494c118603dd-2" source="j9S7m9VbnJjn6Bd4xAih-68" target="j9S7m9VbnJjn6Bd4xAih-70">
          <mxGeometry relative="1" as="geometry" />
        </mxCell>
        <mxCell id="j9S7m9VbnJjn6Bd4xAih-73" value="" style="edgeStyle=orthogonalEdgeStyle;rounded=0;orthogonalLoop=1;jettySize=auto;html=1;" edge="1" parent="1c1d494c118603dd-2" source="j9S7m9VbnJjn6Bd4xAih-68" target="j9S7m9VbnJjn6Bd4xAih-72">
          <mxGeometry relative="1" as="geometry" />
        </mxCell>
        <mxCell id="j9S7m9VbnJjn6Bd4xAih-68" value="&lt;font style=&quot;font-size: 8px;&quot;&gt;Apakah sudah sampai?&lt;/font&gt;" style="rhombus;whiteSpace=wrap;html=1;rounded=1;" vertex="1" parent="1c1d494c118603dd-2">
          <mxGeometry x="87.5" y="640" width="75" height="70" as="geometry" />
        </mxCell>
        <mxCell id="j9S7m9VbnJjn6Bd4xAih-70" value="&lt;font style=&quot;font-size: 8px;&quot;&gt;Cek status pengiriman&lt;/font&gt;" style="whiteSpace=wrap;html=1;rounded=1;" vertex="1" parent="1c1d494c118603dd-2">
          <mxGeometry x="22.5" y="760" width="97.5" height="40" as="geometry" />
        </mxCell>
        <mxCell id="j9S7m9VbnJjn6Bd4xAih-82" value="" style="edgeStyle=orthogonalEdgeStyle;rounded=0;orthogonalLoop=1;jettySize=auto;html=1;" edge="1" parent="1c1d494c118603dd-2" source="j9S7m9VbnJjn6Bd4xAih-72" target="j9S7m9VbnJjn6Bd4xAih-81">
          <mxGeometry relative="1" as="geometry" />
        </mxCell>
        <mxCell id="j9S7m9VbnJjn6Bd4xAih-72" value="&lt;font style=&quot;font-size: 8px;&quot;&gt;Menerima produk&lt;/font&gt;" style="whiteSpace=wrap;html=1;rounded=1;" vertex="1" parent="1c1d494c118603dd-2">
          <mxGeometry x="130" y="760" width="101.25" height="40" as="geometry" />
        </mxCell>
        <mxCell id="j9S7m9VbnJjn6Bd4xAih-78" value="" style="edgeStyle=orthogonalEdgeStyle;rounded=0;orthogonalLoop=1;jettySize=auto;html=1;" edge="1" parent="1c1d494c118603dd-2" source="j9S7m9VbnJjn6Bd4xAih-76">
          <mxGeometry relative="1" as="geometry">
            <mxPoint x="125" y="120" as="targetPoint" />
          </mxGeometry>
        </mxCell>
        <mxCell id="j9S7m9VbnJjn6Bd4xAih-76" value="&lt;font style=&quot;font-size: 8px;&quot;&gt;Produk muncul di beranda&lt;/font&gt;" style="whiteSpace=wrap;html=1;rounded=1;" vertex="1" parent="1c1d494c118603dd-2">
          <mxGeometry x="77.5" y="50" width="95" height="40" as="geometry" />
        </mxCell>
        <mxCell id="j9S7m9VbnJjn6Bd4xAih-62" value="&lt;font style=&quot;font-size: 8px;&quot;&gt;tidak&lt;/font&gt;" style="text;html=1;align=center;verticalAlign=middle;resizable=0;points=[];autosize=1;strokeColor=none;fillColor=none;" vertex="1" parent="1c1d494c118603dd-2">
          <mxGeometry x="60" y="570" width="40" height="30" as="geometry" />
        </mxCell>
        <mxCell id="j9S7m9VbnJjn6Bd4xAih-81" value="&lt;font style=&quot;font-size: 8px;&quot;&gt;Memberikan ulasan tentang produk&lt;/font&gt;" style="whiteSpace=wrap;html=1;rounded=1;" vertex="1" parent="1c1d494c118603dd-2">
          <mxGeometry x="130.93" y="830" width="99.38" height="40" as="geometry" />
        </mxCell>
        <mxCell id="j9S7m9VbnJjn6Bd4xAih-89" value="" style="ellipse;html=1;shape=endState;fillColor=#000000;strokeColor=#ff0000;" vertex="1" parent="1c1d494c118603dd-2">
          <mxGeometry x="110" y="905" width="30" height="30" as="geometry" />
        </mxCell>
        <mxCell id="1c1d494c118603dd-3" value="Penjual" style="swimlane;html=1;startSize=20;" parent="1c1d494c118603dd-1" vertex="1">
          <mxGeometry x="250" y="20" width="250" height="1000" as="geometry" />
        </mxCell>
        <mxCell id="j9S7m9VbnJjn6Bd4xAih-65" value="" style="edgeStyle=orthogonalEdgeStyle;rounded=0;orthogonalLoop=1;jettySize=auto;html=1;" edge="1" parent="1c1d494c118603dd-3" source="j9S7m9VbnJjn6Bd4xAih-58" target="j9S7m9VbnJjn6Bd4xAih-64">
          <mxGeometry relative="1" as="geometry" />
        </mxCell>
        <mxCell id="j9S7m9VbnJjn6Bd4xAih-58" value="&lt;font style=&quot;font-size: 8px;&quot;&gt;menerima notifikasi pesanan&lt;/font&gt;" style="whiteSpace=wrap;html=1;rounded=1;" vertex="1" parent="1c1d494c118603dd-3">
          <mxGeometry x="80" y="575" width="90" height="40" as="geometry" />
        </mxCell>
        <mxCell id="j9S7m9VbnJjn6Bd4xAih-64" value="&lt;font style=&quot;font-size: 8px;&quot;&gt;menyiapkan dan mengirim produk&lt;/font&gt;" style="whiteSpace=wrap;html=1;rounded=1;" vertex="1" parent="1c1d494c118603dd-3">
          <mxGeometry x="77.5" y="655" width="95" height="40" as="geometry" />
        </mxCell>
        <mxCell id="j9S7m9VbnJjn6Bd4xAih-75" value="" style="edgeStyle=orthogonalEdgeStyle;rounded=0;orthogonalLoop=1;jettySize=auto;html=1;" edge="1" parent="1c1d494c118603dd-3" source="j9S7m9VbnJjn6Bd4xAih-31" target="j9S7m9VbnJjn6Bd4xAih-74">
          <mxGeometry relative="1" as="geometry" />
        </mxCell>
        <mxCell id="j9S7m9VbnJjn6Bd4xAih-31" value="" style="ellipse;whiteSpace=wrap;html=1;rounded=0;shadow=0;comic=0;labelBackgroundColor=none;strokeWidth=1;fillColor=#000000;fontFamily=Verdana;fontSize=12;align=center;" vertex="1" parent="1c1d494c118603dd-3">
          <mxGeometry x="105" y="40" width="40" height="40" as="geometry" />
        </mxCell>
        <mxCell id="j9S7m9VbnJjn6Bd4xAih-74" value="&lt;font style=&quot;font-size: 8px;&quot;&gt;Input Data Produk&lt;/font&gt;" style="rounded=1;whiteSpace=wrap;html=1;" vertex="1" parent="1c1d494c118603dd-3">
          <mxGeometry x="77.5" y="110" width="95" height="40" as="geometry" />
        </mxCell>
        <mxCell id="j9S7m9VbnJjn6Bd4xAih-86" value="" style="edgeStyle=orthogonalEdgeStyle;rounded=0;orthogonalLoop=1;jettySize=auto;html=1;" edge="1" parent="1c1d494c118603dd-3" source="j9S7m9VbnJjn6Bd4xAih-83" target="j9S7m9VbnJjn6Bd4xAih-85">
          <mxGeometry relative="1" as="geometry" />
        </mxCell>
        <mxCell id="j9S7m9VbnJjn6Bd4xAih-83" value="&lt;font style=&quot;font-size: 8px;&quot;&gt;Menerima Ulasan&lt;/font&gt;" style="whiteSpace=wrap;html=1;rounded=1;" vertex="1" parent="1c1d494c118603dd-3">
          <mxGeometry x="70" y="830" width="110" height="40" as="geometry" />
        </mxCell>
        <mxCell id="j9S7m9VbnJjn6Bd4xAih-85" value="&lt;font style=&quot;font-size: 8px;&quot;&gt;Menjawab ulasan&lt;/font&gt;" style="whiteSpace=wrap;html=1;rounded=1;" vertex="1" parent="1c1d494c118603dd-3">
          <mxGeometry x="72.5" y="900" width="105" height="40" as="geometry" />
        </mxCell>
        <mxCell id="j9S7m9VbnJjn6Bd4xAih-77" value="" style="edgeStyle=orthogonalEdgeStyle;rounded=0;orthogonalLoop=1;jettySize=auto;html=1;" edge="1" parent="1c1d494c118603dd-1" source="j9S7m9VbnJjn6Bd4xAih-74" target="j9S7m9VbnJjn6Bd4xAih-76">
          <mxGeometry relative="1" as="geometry">
            <Array as="points">
              <mxPoint x="300" y="150" />
              <mxPoint x="300" y="90" />
            </Array>
          </mxGeometry>
        </mxCell>
        <mxCell id="j9S7m9VbnJjn6Bd4xAih-84" value="" style="edgeStyle=orthogonalEdgeStyle;rounded=0;orthogonalLoop=1;jettySize=auto;html=1;" edge="1" parent="1c1d494c118603dd-1" source="j9S7m9VbnJjn6Bd4xAih-81" target="j9S7m9VbnJjn6Bd4xAih-83">
          <mxGeometry relative="1" as="geometry" />
        </mxCell>
        <mxCell id="j9S7m9VbnJjn6Bd4xAih-90" value="" style="edgeStyle=orthogonalEdgeStyle;rounded=0;orthogonalLoop=1;jettySize=auto;html=1;" edge="1" parent="1c1d494c118603dd-1" source="j9S7m9VbnJjn6Bd4xAih-85" target="j9S7m9VbnJjn6Bd4xAih-89">
          <mxGeometry relative="1" as="geometry" />
        </mxCell>
      </root>
    </mxGraphModel>
  </diagram>
</mxfile>
